<?xml version="1.0" encoding="utf-8"?>
<!-- Generator: Adobe Illustrator 17.1.0, SVG Export Plug-In . SVG Version: 6.00 Build 0)  -->
<!DOCTYPE svg PUBLIC "-//W3C//DTD SVG 1.1//EN" "http://www.w3.org/Graphics/SVG/1.1/DTD/svg11.dtd">
<svg version="1.1" id="Layer_1" xmlns="http://www.w3.org/2000/svg" xmlns:xlink="http://www.w3.org/1999/xlink" x="0px" y="0px"
	 viewBox="0 0 500 200" enable-background="new 0 0 500 200" xml:space="preserve">
<g>
	<path fill="#0099FF" d="M75.1,129.9c0,3-0.8,4.1-6.6,6.2c-5.9,2.1-12,3.3-18.8,3.3c-23.3,0-41.8-13.6-41.8-40.9
		C7.8,68.9,29.5,58,49.1,58c8.1,0,15.7,1.8,21.7,5.2c3.3,1.8,4.2,3,4.2,4s-1.1,2.3-2.2,2.3c-1.4,0-3.4-2.3-8.7-4.3
		c-4-1.6-9.5-2.8-15.7-2.8C31.9,62.4,13,71.4,13,97.7c0,24.6,16.5,37.2,36.7,37.2c12,0,20.5-4.5,20.5-4.5v-17.9c0-0.7,0-1.4,0.4-1.9
		c0.4-0.6,1.2-0.8,2.1-0.8c0.8,0,1.7,0.2,2.1,0.8c0.4,0.5,0.4,1.2,0.4,1.9V129.9z"/>
	<path fill="#0099FF" d="M134.9,133.9c0.7,0,1.4,0,2.1,0.4c0.6,0.4,0.8,1,0.8,1.7c0,0.8-0.2,1.4-0.8,1.8s-1.3,0.4-2.1,0.4h-32.2
		c-1.8,0-2.4-0.8-2.4-2.4V61.9c0-0.7,0-1.4,0.4-1.9c0.4-0.6,1.2-0.8,2.1-0.8c0.8,0,1.7,0.2,2.1,0.8c0.4,0.5,0.4,1.2,0.4,1.9v72
		H134.9z"/>
	<path fill="#0099FF" d="M207.5,127.1c5.6-6.8,5.6-15.5,5.6-21.7V61.9c0-0.7,0-1.4,0.4-1.9c0.4-0.6,1.2-0.8,2.1-0.8
		c0.8,0,1.7,0.2,2.1,0.8c0.4,0.5,0.4,1.2,0.4,1.9v43.6c0,6.6,0,17.4-7.4,25.4c-5.7,6.2-14.3,8.9-24.5,8.9c-11.6,0-19.1-3.5-24.3-9.1
		c-7.4-8-7.4-16.7-7.4-25.4V61.9c0-0.7,0-1.4,0.4-1.9c0.4-0.6,1.2-0.8,2.1-0.8c0.8,0,1.7,0.2,2.1,0.8c0.4,0.5,0.4,1.2,0.4,1.9v43.5
		c0,6.3,0,15,5.6,21.7c4.6,5.6,12,8.3,21.4,8.3S202.9,132.6,207.5,127.1z"/>
	<path fill="#0099FF" d="M283.5,106.6h-30l-11.5,30c-0.6,1.4-1.2,2.3-2.8,2.3c-1.4,0-2.1-0.6-2.1-1.6c0-0.4,0.1-1,0.5-1.8l28.5-74
		c0.5-1.3,1.3-2.3,2.8-2.3c1.5,0,2.3,1,2.8,2.3l27.5,74c0.2,0.6,0.5,1.3,0.5,1.8c0,0.8-0.6,1.6-2.3,1.6c-1.4,0-2.3-0.6-2.9-2.3
		L283.5,106.6z M255.1,102.5h26.8l-13.2-35.5L255.1,102.5z"/>
	<path d="M317.2,139.2c-2.1,0-3.6-1.6-3.6-3.6c0-2.1,1.6-3.6,3.6-3.6c2.1,0,3.6,1.6,3.6,3.6C320.8,137.6,319.2,139.2,317.2,139.2z"
		/>
	<path d="M412.9,61.4c0.7-1.6,1.7-2.3,3.3-2.3c2.3,0,2.3,1.6,2.5,3.6l7.6,71.3c0.1,1.1,0.2,2.1,0.2,2.8c0,1.3-0.6,2.1-2.3,2.1
		c-1.7,0-2.3-0.7-2.4-2.3l-7.4-68.4l-28.7,62.4c-0.6,1.3-1.3,2.5-2.9,2.5c-1.1,0-2.1-0.6-2.9-2.5l-28.1-62.4l-7.8,68.4
		c-0.1,1.6-0.8,2.3-2.4,2.3s-2.3-0.8-2.3-2.2c0-0.5,0.1-1.4,0.2-2.4l8.6-71.9c0.2-1.7,0.4-3.3,2.7-3.3c1.3,0,2.3,0.6,3,2.3
		l29.2,64.9L412.9,61.4z"/>
	<path d="M457.6,93.3h23.2c0.7,0,1.4,0,2.1,0.4c0.6,0.4,0.8,1,0.8,1.7c0,0.8-0.2,1.4-0.8,1.8c-0.6,0.4-1.3,0.4-2.1,0.4h-23.2v36.4
		h31.6c0.7,0,1.4,0,2.1,0.4c0.6,0.4,0.8,1,0.8,1.7c0,0.8-0.2,1.4-0.8,1.8c-0.6,0.4-1.3,0.4-2.1,0.4h-34.1c-1.8,0-2.4-0.8-2.4-2.4
		V62.4c0-1.6,0.6-2.4,2.4-2.4h30c0.7,0,1.4,0,2.1,0.4c0.6,0.4,0.8,1,0.8,1.7c0,0.8-0.2,1.4-0.8,1.8c-0.6,0.4-1.3,0.4-2.1,0.4h-27.5
		V93.3z"/>
</g>
</svg>
